<svg width="129" height="27" viewBox="0 0 129 27" fill="none" xmlns="http://www.w3.org/2000/svg">
<path fill-rule="evenodd" clip-rule="evenodd" d="M6.51135 7.88519L9.88671 9.61334L13.2617 5.01122L16.6364 6.739L19.3128 3.08485C17.5939 2.12319 15.6128 1.575 13.5 1.575C7.17861 1.575 2.00602 6.49362 1.60059 12.7125H2.97565L6.51135 7.88519ZM4.92793 12.7125H25.3994C25.1658 9.12757 23.3488 5.97388 20.6355 3.94437L17.1136 8.7528L13.7383 7.02465L10.3633 11.6268L6.98865 9.89899L4.92793 12.7125ZM20.9215 2.22117C24.3781 4.50025 26.7251 8.32567 26.9774 12.7125C26.9924 12.9731 27 13.2357 27 13.5C27 13.7643 26.9924 14.0269 26.9774 14.2875C26.9263 15.1757 26.7894 16.041 26.5747 16.875C26.3407 17.7841 26.0144 18.6561 25.6064 19.4804C25.477 19.7419 25.3394 19.9985 25.1939 20.25C24.4591 21.5204 23.5231 22.6599 22.4297 23.625C21.9625 24.0373 21.4666 24.4178 20.9453 24.7631C20.7182 24.9135 20.4864 25.0572 20.25 25.1939C18.4778 26.2191 16.4509 26.853 14.2875 26.9774C14.0269 26.9924 13.7643 27 13.5 27C13.2357 27 12.9731 26.9924 12.7125 26.9774C10.5491 26.853 8.52221 26.2191 6.75 25.1939C6.51361 25.0572 6.28175 24.9135 6.0547 24.7631C5.53342 24.4178 5.0375 24.0373 4.57034 23.625C3.47686 22.6599 2.54093 21.5204 1.80606 20.25C1.66057 19.9985 1.52297 19.7419 1.39358 19.4804C0.985571 18.6561 0.659286 17.7841 0.425309 16.875C0.210644 16.041 0.0736775 15.1757 0.0225864 14.2875C0.00759764 14.0269 0 13.7643 0 13.5C0 13.2357 0.00759764 12.9731 0.0225865 12.7125C0.43036 5.62317 6.3085 0 13.5 0C15.9588 0 18.264 0.65732 20.2496 1.80582C20.4779 1.93786 20.7019 2.0764 20.9215 2.22117ZM1.60053 14.2875C1.64958 15.0414 1.76852 15.775 1.9506 16.4824C2.08654 17.0106 2.25781 17.5247 2.4618 18.022L5.19707 14.2875H1.60053ZM7.14935 14.2875L3.25418 19.6056C3.88998 20.6699 4.68734 21.6275 5.61257 22.4442C5.90149 22.6992 6.2028 22.9404 6.51544 23.1667L9.07808 14.2875H7.14935ZM10.7174 14.2875L7.90449 24.0337C9.35386 24.8055 10.9815 25.2868 12.7125 25.3995V14.2875H10.7174ZM14.2875 14.2875V25.3995C16.0185 25.2868 17.6461 24.8055 19.0955 24.0337L16.2826 14.2875H14.2875ZM17.9219 14.2875L20.4846 23.1667C20.7972 22.9403 21.0985 22.6992 21.3874 22.4442C22.3127 21.6275 23.11 20.6699 23.7458 19.6056L19.8507 14.2875H17.9219ZM21.8029 14.2875L24.5382 18.022C24.7422 17.5247 24.9135 17.0106 25.0494 16.4824C25.2315 15.775 25.3504 15.0414 25.3995 14.2875H21.8029Z" fill="#07152A"/>
<path d="M114.04 10.261H116.207V12.1151C116.475 11.4449 116.862 10.9312 117.368 10.5738C117.89 10.2163 118.53 10.0376 119.289 10.0376C119.96 10.0376 120.555 10.2238 121.076 10.5961C121.598 10.9684 121.97 11.5566 122.193 12.3608C122.461 11.6311 122.878 11.0652 123.444 10.6631C124.025 10.2461 124.747 10.0376 125.611 10.0376C126.624 10.0376 127.42 10.4025 128.001 11.1322C128.597 11.8619 128.895 12.882 128.895 14.1925V20.8045H126.728V14.2818C126.728 13.5075 126.557 12.9267 126.214 12.5395C125.887 12.1523 125.41 11.9587 124.785 11.9587C124.07 11.9587 123.519 12.2193 123.132 12.7405C122.744 13.2618 122.551 13.9915 122.551 14.9297V20.8045H120.384V14.3042C120.384 13.5149 120.213 12.9267 119.87 12.5395C119.543 12.1523 119.066 11.9587 118.441 11.9587C117.785 11.9587 117.249 12.2193 116.832 12.7405C116.415 13.2469 116.207 13.9691 116.207 14.9073V20.8045H114.04V10.261Z" fill="#07152A"/>
<path d="M106.178 20.9832C105.002 20.9832 104.079 20.6035 103.409 19.844C102.738 19.0696 102.403 18.0123 102.403 16.672V10.261H104.592V16.5603C104.592 17.3943 104.771 18.0272 105.129 18.459C105.486 18.8909 106.03 19.1068 106.759 19.1068C107.608 19.1068 108.248 18.7718 108.68 18.1016C109.112 17.4166 109.328 16.4784 109.328 15.2871V10.261H111.473V20.8045H109.328V18.9281C109.03 19.6132 108.621 20.1269 108.099 20.4695C107.578 20.812 106.938 20.9832 106.178 20.9832Z" fill="#07152A"/>
<path d="M97.8215 10.261H100.011V20.8045H97.8215V10.261ZM97.7769 6.2402H100.1V8.56335H97.7769V6.2402Z" fill="#07152A"/>
<path d="M90.4863 10.261H92.6531V12.2491C92.8169 11.579 93.1371 11.0652 93.6136 10.7078C94.0902 10.3355 94.7975 10.1493 95.7357 10.1493H96.0485V12.2938H95.0656C94.1423 12.2938 93.5094 12.532 93.1669 13.0086C92.8244 13.4851 92.6531 14.2819 92.6531 15.3988V20.8045H90.4863V10.261Z" fill="#07152A"/>
<path d="M82.3986 21.0279C81.4902 21.0279 80.6711 20.812 79.9414 20.3801C79.2266 19.9333 78.6607 19.3004 78.2437 18.4814C77.8417 17.6474 77.6406 16.6795 77.6406 15.5774V15.5551C77.6406 14.4531 77.8417 13.4851 78.2437 12.6512C78.6607 11.8172 79.2266 11.1769 79.9414 10.7301C80.6711 10.2685 81.4976 10.0376 82.4209 10.0376C83.1506 10.0376 83.8133 10.2089 84.409 10.5514C85.0196 10.879 85.5185 11.3481 85.9057 11.9587V10.261H87.9161V20.8045H85.9057V19.1292C85.5334 19.7249 85.0419 20.194 84.4314 20.5365C83.8208 20.8641 83.1432 21.0279 82.3986 21.0279ZM82.89 19.3079C83.5155 19.3079 84.0591 19.1515 84.5207 18.8388C84.9824 18.5261 85.3398 18.0942 85.5929 17.5432C85.8461 16.9773 85.9801 16.3369 85.995 15.6221V15.3764C85.9801 14.6467 85.8461 14.0138 85.5929 13.4777C85.3547 12.9267 84.9973 12.5023 84.5207 12.2044C84.0591 11.9066 83.5155 11.7577 82.89 11.7577C81.937 11.7577 81.17 12.0927 80.5892 12.7629C80.0233 13.433 79.7404 14.3489 79.7404 15.5104V15.6668C79.7404 16.8284 80.0233 17.7293 80.5892 18.3697C81.1551 18.9952 81.9221 19.3079 82.89 19.3079Z" fill="#07152A"/>
<path d="M61.0049 10.261H63.1717V12.1151C63.4397 11.4449 63.8269 10.9312 64.3332 10.5738C64.8545 10.2163 65.4948 10.0376 66.2543 10.0376C66.9244 10.0376 67.5201 10.2238 68.0413 10.5961C68.5625 10.9684 68.9348 11.5566 69.1582 12.3608C69.4263 11.6311 69.8433 11.0652 70.4092 10.6631C70.9899 10.2461 71.7122 10.0376 72.5759 10.0376C73.5886 10.0376 74.3853 10.4025 74.9661 11.1322C75.5618 11.8619 75.8596 12.882 75.8596 14.1925V20.8045H73.6928V14.2818C73.6928 13.5075 73.5216 12.9267 73.1791 12.5395C72.8514 12.1523 72.3749 11.9587 71.7494 11.9587C71.0346 11.9587 70.4836 12.2193 70.0964 12.7405C69.7092 13.2618 69.5156 13.9915 69.5156 14.9297V20.8045H67.3489V14.3042C67.3489 13.5149 67.1776 12.9267 66.8351 12.5395C66.5075 12.1523 66.0309 11.9587 65.4055 11.9587C64.7502 11.9587 64.2141 12.2193 63.7971 12.7405C63.3801 13.2469 63.1717 13.9691 63.1717 14.9073V20.8045H61.0049V10.261Z" fill="#07152A"/>
<path d="M53.7567 20.9832C52.7441 20.9832 51.8357 20.7524 51.0315 20.2908C50.2422 19.8291 49.6242 19.1887 49.1775 18.3697C48.7307 17.5506 48.5073 16.6124 48.5073 15.5551C48.5073 14.4829 48.7307 13.5373 49.1775 12.7182C49.6391 11.8842 50.2646 11.2364 51.0538 10.7748C51.858 10.3131 52.7739 10.0823 53.8014 10.0823C54.8141 10.0823 55.7225 10.3131 56.5266 10.7748C57.3308 11.2364 57.9563 11.8842 58.403 12.7182C58.8498 13.5373 59.0732 14.4829 59.0732 15.5551C59.0732 16.5827 58.8423 17.5134 58.3807 18.3474C57.9339 19.1813 57.301 19.8291 56.482 20.2908C55.6778 20.7524 54.7694 20.9832 53.7567 20.9832ZM53.7567 19.1292C54.7247 19.1292 55.4842 18.8165 56.0352 18.191C56.5862 17.5655 56.8617 16.7092 56.8617 15.6221V15.5328C56.8617 14.4159 56.5862 13.5373 56.0352 12.8969C55.4991 12.2417 54.7545 11.914 53.8014 11.914C52.8483 11.914 52.0888 12.2417 51.5229 12.8969C50.9719 13.5373 50.6964 14.4159 50.6964 15.5328V15.6221C50.6964 16.7092 50.9645 17.5655 51.5006 18.191C52.0516 18.8165 52.8037 19.1292 53.7567 19.1292Z" fill="#07152A"/>
<path d="M37 5.97211H41.691C43.7163 5.97211 45.2278 6.3593 46.2256 7.13368C47.2233 7.89317 47.7222 9.04729 47.7222 10.5961C47.7222 11.6683 47.4914 12.5543 47.0297 13.2543C46.583 13.9393 45.9054 14.4531 44.997 14.7956C44.1035 15.1381 42.9791 15.3094 41.624 15.3094H39.2115V20.8045H37V5.97211ZM41.624 13.433C42.5324 13.433 43.2621 13.3362 43.8131 13.1426C44.379 12.949 44.7959 12.6511 45.064 12.2491C45.332 11.8321 45.4661 11.2811 45.4661 10.5961C45.4661 9.61319 45.1682 8.91327 44.5726 8.49629C43.9918 8.06443 43.0312 7.84849 41.691 7.84849H39.2115V13.433H41.624Z" fill="#07152A"/>
</svg>
